<?xml version="1.0" standalone="no"?>
<!DOCTYPE svg PUBLIC "-//W3C//DTD SVG 20010904//EN"
 "http://www.w3.org/TR/2001/REC-SVG-20010904/DTD/svg10.dtd">
<svg version="1.0" xmlns="http://www.w3.org/2000/svg"
 width="256.000000pt" height="256.000000pt" viewBox="0 0 256.000000 256.000000"
 preserveAspectRatio="xMidYMid meet">

<defs>
  <linearGradient id="redToMagenta" x1="0%" y1="0%" x2="100%" y2="0%">
    <stop offset="0%" style="stop-color:rgb(255,0,0);stop-opacity:1" />
    <stop offset="100%" style="stop-color:rgb(255,0,255);stop-opacity:1" />
  </linearGradient>
</defs>

<g transform="translate(0.000000,256.000000) scale(0.100000,-0.100000)"
fill="url(#redToMagenta)" stroke="none">
<path d="M1160 2524 c-99 -13 -210 -38 -288 -66 -424 -149 -731 -504 -819
-945 -23 -119 -23 -347 0 -466 100 -504 490 -894 994 -994 119 -23 347 -23
466 0 504 100 894 490 994 994 23 119 23 347 0 466 -100 502 -493 896 -989
992 -83 16 -293 27 -358 19z m312 -463 c292 -75 514 -297 589 -589 26 -103 26
-281 0 -384 -75 -292 -297 -514 -589 -589 -103 -26 -281 -26 -384 0 -291 75
-514 297 -588 585 -28 109 -28 283 0 392 74 286 295 509 584 584 100 26 287
27 388 1z"/>
<path d="M1120 1914 c-179 -46 -341 -176 -418 -334 -55 -111 -72 -184 -72
-300 0 -116 17 -189 72 -300 78 -160 241 -289 423 -335 76 -19 234 -19 310 0
233 59 421 247 480 480 19 76 19 234 0 310 -59 233 -247 421 -480 480 -75 19
-241 19 -315 -1z m246 -93 c79 -36 136 -143 119 -223 -39 -181 -271 -233 -374
-83 -94 137 4 325 169 325 25 0 63 -9 86 -19z m-204 -481 c19 -47 68 -80 118
-80 50 0 99 33 118 80 19 45 33 49 104 24 64 -21 122 -75 155 -142 27 -54 28
-65 32 -224 l3 -168 -75 0 -76 0 -7 58 c-8 62 -9 61 -19 -10 l-6 -48 -229 0
-229 0 -6 48 c-10 71 -11 72 -19 10 l-7 -58 -76 0 -75 0 3 168 c4 159 5 170
32 224 32 65 91 121 151 142 71 25 89 21 108 -24z"/>
</g>
</svg>

